<svg width="26" height="25" viewBox="0 0 26 25" fill="none" xmlns="http://www.w3.org/2000/svg">
<g clip-path="url(#clip0_48_34)">
<path d="M17.75 12.5C17.75 12.9839 17.358 13.375 16.875 13.375H14.25V16C14.25 16.4839 13.858 16.875 13.375 16.875C12.892 16.875 12.5 16.4839 12.5 16V13.375H9.875C9.392 13.375 9 12.9839 9 12.5C9 12.0161 9.392 11.625 9.875 11.625H12.5V9C12.5 8.51613 12.892 8.125 13.375 8.125C13.858 8.125 14.25 8.51613 14.25 9V11.625H16.875C17.358 11.625 17.75 12.0161 17.75 12.5ZM23.875 6.375V18.625C23.875 21.0374 21.9124 23 19.5 23H7.25C4.83763 23 2.875 21.0374 2.875 18.625V6.375C2.875 3.96263 4.83763 2 7.25 2H19.5C21.9124 2 23.875 3.96263 23.875 6.375ZM22.125 6.375C22.125 4.92775 20.9473 3.75 19.5 3.75H7.25C5.80275 3.75 4.625 4.92775 4.625 6.375V18.625C4.625 20.0723 5.80275 21.25 7.25 21.25H19.5C20.9473 21.25 22.125 20.0723 22.125 18.625V6.375Z" fill="#FF4811"/>
</g>
<rect x="1.875" y="1" width="23" height="23" stroke="black" stroke-width="2"/>
<defs>
<clipPath id="clip0_48_34">
<rect x="2.875" y="2" width="21" height="21" fill="white"/>
</clipPath>
</defs>
</svg>
