<svg width="13" height="12" viewBox="0 0 13 12" fill="none" xmlns="http://www.w3.org/2000/svg">
<path d="M7.5095 3.73988L10.913 0.336375C11.3615 -0.112125 12.0895 -0.112125 12.538 0.336375C12.9865 0.784875 12.9865 1.51288 12.538 1.96138L9.1345 5.36487C8.728 5.77137 8.177 5.99988 7.602 5.99988H6.8745V5.27238C6.8745 4.69738 7.103 4.14638 7.5095 3.73988ZM11.248 4.66587L9.8415 6.07238C9.2475 6.66638 8.4425 6.99988 7.6025 6.99988H6.375C6.099 6.99988 5.875 6.77588 5.875 6.49988V5.27238C5.875 5.00787 5.911 4.74988 5.9735 4.49988H3.375C1.9945 4.49988 0.875 5.61938 0.875 6.99988V8.99988C0.875 10.3804 1.9945 11.4999 3.375 11.4999H10.375C11.7555 11.4999 12.875 10.3804 12.875 8.99988V6.99988C12.875 5.92987 12.1955 5.02187 11.248 4.66587ZM3.625 8.97838C3.211 8.97838 2.875 8.64237 2.875 8.22838C2.875 7.81438 3.211 7.47837 3.625 7.47837C4.039 7.47837 4.375 7.81438 4.375 8.22838C4.375 8.64237 4.039 8.97838 3.625 8.97838ZM6.125 8.97838C5.711 8.97838 5.375 8.64237 5.375 8.22838C5.375 7.81438 5.711 7.47837 6.125 7.47837C6.539 7.47837 6.875 7.81438 6.875 8.22838C6.875 8.64237 6.539 8.97838 6.125 8.97838Z" fill="#FF4811"/>
</svg>
